<svg width="40" height="40" viewBox="0 0 40 40" fill="none" xmlns="http://www.w3.org/2000/svg">
<path d="M30 28.75H10.7023C10.4096 28.75 10.1261 28.6473 9.90137 28.4597C9.67662 28.2721 9.52483 28.0116 9.47247 27.7236L5.30025 4.77639C5.24789 4.48838 5.0961 4.22788 4.87135 4.04031C4.6466 3.85274 4.36315 3.75 4.07042 3.75H1.25" stroke="#24262E" stroke-width="2.5" stroke-linecap="round" stroke-linejoin="round"/>
<path d="M11.25 35C12.9759 35 14.375 33.6009 14.375 31.875C14.375 30.1491 12.9759 28.75 11.25 28.75C9.52411 28.75 8.125 30.1491 8.125 31.875C8.125 33.6009 9.52411 35 11.25 35Z" stroke="#24262E" stroke-width="2.5" stroke-linecap="round" stroke-linejoin="round"/>
<path d="M30 35C31.7259 35 33.125 33.6009 33.125 31.875C33.125 30.1491 31.7259 28.75 30 28.75C28.2741 28.75 26.875 30.1491 26.875 31.875C26.875 33.6009 28.2741 35 30 35Z" stroke="#24262E" stroke-width="2.5" stroke-linecap="round" stroke-linejoin="round"/>
<path d="M6.25 10H33.5022C33.6853 10 33.8662 10.0402 34.032 10.1178C34.1978 10.1954 34.3446 10.3085 34.4619 10.4491C34.5792 10.5896 34.6642 10.7543 34.7109 10.9313C34.7576 11.1083 34.7648 11.2935 34.7321 11.4736L32.6866 22.7236C32.6343 23.0116 32.4825 23.2721 32.2577 23.4597C32.033 23.6473 31.7495 23.75 31.4568 23.75H8.75" stroke="#24262E" stroke-width="2.5" stroke-linecap="round" stroke-linejoin="round"/>
</svg>
